HIERARCHY
ROOT Hips
{
  OFFSET -451.732 79.7729 1287.74
  CHANNELS 6 Xposition Yposition Zposition Zrotation Xrotation Yrotation
  JOINT Spine
  {
    OFFSET 0 8 8.48073e-05
    CHANNELS 6 Xposition Yposition Zposition Zrotation Xrotation Yrotation
    JOINT Spine1
    {
      OFFSET -7.17399e-05 7.99999 4.16375e-05
      CHANNELS 6 Xposition Yposition Zposition Zrotation Xrotation Yrotation
      JOINT Spine2
      {
        OFFSET 0.000971027 8.00003 -0.000880953
        CHANNELS 6 Xposition Yposition Zposition Zrotation Xrotation Yrotation
        JOINT Spine3
        {
          OFFSET 0 8 0
          CHANNELS 6 Xposition Yposition Zposition Zrotation Xrotation Yrotation
          JOINT Neck
          {
            OFFSET -1.78459e-05 17.0002 -0.000286176
            CHANNELS 6 Xposition Yposition Zposition Zrotation Xrotation Yrotation
            JOINT Head
            {
              OFFSET 0.00125071 10.7997 -0.000368596
              CHANNELS 6 Xposition Yposition Zposition Zrotation Xrotation Yrotation
              End Site
              {
                OFFSET 0 20.25 0
              }
            }
          }
          JOINT LeftShoulder
          {
            OFFSET 5.00001 17 -3.1354e-05
            CHANNELS 6 Xposition Yposition Zposition Zrotation Xrotation Yrotation
            JOINT LeftShoulder2
            {
              OFFSET 6.45 0 0
              CHANNELS 6 Xposition Yposition Zposition Zrotation Xrotation Yrotation
              JOINT LeftArm
              {
                OFFSET 6.44998 -4.1855e-05 -5.29495e-05
                CHANNELS 6 Xposition Yposition Zposition Zrotation Xrotation Yrotation
                JOINT LeftForeArm
                {
                  OFFSET 0.00127534 -32.3999 -2.00032
                  CHANNELS 6 Xposition Yposition Zposition Zrotation Xrotation Yrotation
                  JOINT LeftHand
                  {
                    OFFSET 0 -25.6501 1.99999
                    CHANNELS 6 Xposition Yposition Zposition Zrotation Xrotation Yrotation
                    JOINT LeftHandThumb1
                    {
                      OFFSET -0.499373 -1.50143 2.65178
                      CHANNELS 6 Xposition Yposition Zposition Zrotation Xrotation Yrotation
                      JOINT LeftHandThumb2
                      {
                        OFFSET -0.000922592 -3.79643 3.70074
                        CHANNELS 6 Xposition Yposition Zposition Zrotation Xrotation Yrotation
                        JOINT LeftHandThumb3
                        {
                          OFFSET -4.38955e-05 -2.99995 2.70002
                          CHANNELS 6 Xposition Yposition Zposition Zrotation Xrotation Yrotation
                          End Site
                          {
                            OFFSET -0.000162722 -2.29987 1.80008
                          }
                        }
                      }
                    }
                    JOINT LeftHandIndex
                    {
                      OFFSET -2.04923e-05 -1.90017 1.60016
                      CHANNELS 6 Xposition Yposition Zposition Zrotation Xrotation Yrotation
                      JOINT LeftHandIndex1
                      {
                        OFFSET 0.0012149 -8.30019 1.89926
                        CHANNELS 6 Xposition Yposition Zposition Zrotation Xrotation Yrotation
                        JOINT LeftHandIndex2
                        {
                          OFFSET 0.00559188 -4.50165 -0.0011868
                          CHANNELS 6 Xposition Yposition Zposition Zrotation Xrotation Yrotation
                          JOINT LeftHandIndex3
                          {
                            OFFSET -0.000132365 -3.39976 -0.000733947
                            CHANNELS 6 Xposition Yposition Zposition Zrotation Xrotation Yrotation
                            End Site
                            {
                              OFFSET 0.000141023 -2.60026 0.000961257
                            }
                          }
                        }
                      }
                    }
                    JOINT LeftHandMiddle
                    {
                      OFFSET -0.249516 -2.20032 0.399603
                      CHANNELS 6 Xposition Yposition Zposition Zrotation Xrotation Yrotation
                      JOINT LeftHandMiddle1
                      {
                        OFFSET 0.000208517 -8.29999 1.00013
                        CHANNELS 6 Xposition Yposition Zposition Zrotation Xrotation Yrotation
                        JOINT LeftHandMiddle2
                        {
                          OFFSET 0 -4.65002 -2.81398e-05
                          CHANNELS 6 Xposition Yposition Zposition Zrotation Xrotation Yrotation
                          JOINT LeftHandMiddle3
                          {
                            OFFSET 0.000329087 -3.2996 0
                            CHANNELS 6 Xposition Yposition Zposition Zrotation Xrotation Yrotation
                            End Site
                            {
                              OFFSET 4.86988e-05 -2.70004 8.67635e-05
                            }
                          }
                        }
                      }
                    }
                    JOINT LeftHandRing
                    {
                      OFFSET -0.500534 -2.14968 -0.799792
                      CHANNELS 6 Xposition Yposition Zposition Zrotation Xrotation Yrotation
                      JOINT LeftHandRing1
                      {
                        OFFSET 0 -7.74999 -0.200128
                        CHANNELS 6 Xposition Yposition Zposition Zrotation Xrotation Yrotation
                        JOINT LeftHandRing2
                        {
                          OFFSET -0.000488318 -3.79965 -0.00102462
                          CHANNELS 6 Xposition Yposition Zposition Zrotation Xrotation Yrotation
                          JOINT LeftHandRing3
                          {
                            OFFSET -0.00150506 -3.40074 -0.00104741
                            CHANNELS 6 Xposition Yposition Zposition Zrotation Xrotation Yrotation
                            End Site
                            {
                              OFFSET 0.000110333 -2.5997 -0.000159058
                            }
                          }
                        }
                      }
                    }
                    JOINT LeftHandPinky
                    {
                      OFFSET -0.750034 -1.74994 -1.85004
                      CHANNELS 6 Xposition Yposition Zposition Zrotation Xrotation Yrotation
                      JOINT LeftHandPinky1
                      {
                        OFFSET 0 -7.15162 -0.998729
                        CHANNELS 6 Xposition Yposition Zposition Zrotation Xrotation Yrotation
                        JOINT LeftHandPinky2
                        {
                          OFFSET 0.000207607 -3.0002 -0.000495385
                          CHANNELS 6 Xposition Yposition Zposition Zrotation Xrotation Yrotation
                          JOINT LeftHandPinky3
                          {
                            OFFSET 0.000571794 -2.35086 0.0015795
                            CHANNELS 6 Xposition Yposition Zposition Zrotation Xrotation Yrotation
                            End Site
                            {
                              OFFSET 0.00160333 -2.10007 0.0025634
                            }
                          }
                        }
                      }
                    }
                  }
                }
              }
            }
          }
          JOINT RightShoulder
          {
            OFFSET -5 16.9999 -7.7602e-05
            CHANNELS 6 Xposition Yposition Zposition Zrotation Xrotation Yrotation
            JOINT RightShoulder2
            {
              OFFSET -6.45 0 0
              CHANNELS 6 Xposition Yposition Zposition Zrotation Xrotation Yrotation
              JOINT RightArm
              {
                OFFSET -6.45002 0 0
                CHANNELS 6 Xposition Yposition Zposition Zrotation Xrotation Yrotation
                JOINT RightForeArm
                {
                  OFFSET -1.63942e-05 -32.4 -1.99991
                  CHANNELS 6 Xposition Yposition Zposition Zrotation Xrotation Yrotation
                  JOINT RightHand
                  {
                    OFFSET 0 -25.6499 2
                    CHANNELS 6 Xposition Yposition Zposition Zrotation Xrotation Yrotation
                    JOINT RightHandThumb1
                    {
                      OFFSET 0.500003 -1.5001 2.65005
                      CHANNELS 6 Xposition Yposition Zposition Zrotation Xrotation Yrotation
                      JOINT RightHandThumb2
                      {
                        OFFSET 9.98434e-05 -3.80007 3.70007
                        CHANNELS 6 Xposition Yposition Zposition Zrotation Xrotation Yrotation
                        JOINT RightHandThumb3
                        {
                          OFFSET 2.68993e-05 -3.00001 2.69998
                          CHANNELS 6 Xposition Yposition Zposition Zrotation Xrotation Yrotation
                          End Site
                          {
                            OFFSET -6.19246e-05 -2.30005 1.79993
                          }
                        }
                      }
                    }
                    JOINT RightHandIndex
                    {
                      OFFSET -0.000487508 -1.90094 1.60037
                      CHANNELS 6 Xposition Yposition Zposition Zrotation Xrotation Yrotation
                      JOINT RightHandIndex1
                      {
                        OFFSET -0.000219579 -8.30004 1.90032
                        CHANNELS 6 Xposition Yposition Zposition Zrotation Xrotation Yrotation
                        JOINT RightHandIndex2
                        {
                          OFFSET 0.00106758 -4.49883 0.000237015
                          CHANNELS 6 Xposition Yposition Zposition Zrotation Xrotation Yrotation
                          JOINT RightHandIndex3
                          {
                            OFFSET -1.62511e-05 -3.3998 -0.000450447
                            CHANNELS 6 Xposition Yposition Zposition Zrotation Xrotation Yrotation
                            End Site
                            {
                              OFFSET -1.74624e-05 -2.59991 -7.19531e-05
                            }
                          }
                        }
                      }
                    }
                    JOINT RightHandMiddle
                    {
                      OFFSET 0.249943 -2.20004 0.40008
                      CHANNELS 6 Xposition Yposition Zposition Zrotation Xrotation Yrotation
                      JOINT RightHandMiddle1
                      {
                        OFFSET 5.0148e-05 -8.3001 1.00003
                        CHANNELS 6 Xposition Yposition Zposition Zrotation Xrotation Yrotation
                        JOINT RightHandMiddle2
                        {
                          OFFSET 0.00214991 -4.64735 -1.24008e-05
                          CHANNELS 6 Xposition Yposition Zposition Zrotation Xrotation Yrotation
                          JOINT RightHandMiddle3
                          {
                            OFFSET -0.000141348 -3.29994 -0.000265565
                            CHANNELS 6 Xposition Yposition Zposition Zrotation Xrotation Yrotation
                            End Site
                            {
                              OFFSET -0.00196968 -2.69989 -0.000565613
                            }
                          }
                        }
                      }
                    }
                    JOINT RightHandRing
                    {
                      OFFSET 0.50015 -2.15029 -0.799635
                      CHANNELS 6 Xposition Yposition Zposition Zrotation Xrotation Yrotation
                      JOINT RightHandRing1
                      {
                        OFFSET 5.87616e-05 -7.75001 -0.200144
                        CHANNELS 6 Xposition Yposition Zposition Zrotation Xrotation Yrotation
                        JOINT RightHandRing2
                        {
                          OFFSET -0.00180276 -3.79875 0.00100219
                          CHANNELS 6 Xposition Yposition Zposition Zrotation Xrotation Yrotation
                          JOINT RightHandRing3
                          {
                            OFFSET 0.00138442 -3.40227 -0.00108801
                            CHANNELS 6 Xposition Yposition Zposition Zrotation Xrotation Yrotation
                            End Site
                            {
                              OFFSET -3.41112e-05 -2.59984 -0.000581243
                            }
                          }
                        }
                      }
                    }
                    JOINT RightHandPinky
                    {
                      OFFSET 0.749962 -1.75002 -1.85004
                      CHANNELS 6 Xposition Yposition Zposition Zrotation Xrotation Yrotation
                      JOINT RightHandPinky1
                      {
                        OFFSET -0.000936331 -7.15105 -1.00062
                        CHANNELS 6 Xposition Yposition Zposition Zrotation Xrotation Yrotation
                        JOINT RightHandPinky2
                        {
                          OFFSET -0.000190162 -3.00212 -0.00148095
                          CHANNELS 6 Xposition Yposition Zposition Zrotation Xrotation Yrotation
                          JOINT RightHandPinky3
                          {
                            OFFSET 0.000205709 -2.35023 0.000217412
                            CHANNELS 6 Xposition Yposition Zposition Zrotation Xrotation Yrotation
                            End Site
                            {
                              OFFSET -0.000173885 -2.09971 -0.000203563
                            }
                          }
                        }
                      }
                    }
                  }
                }
              }
            }
          }
        }
      }
    }
  }
  JOINT LeftUpLeg
  {
    OFFSET 8.00003 0 0
    CHANNELS 6 Xposition Yposition Zposition Zrotation Xrotation Yrotation
    JOINT LeftLeg
    {
      OFFSET -2.98731e-05 -45 -1.00012
      CHANNELS 6 Xposition Yposition Zposition Zrotation Xrotation Yrotation
      JOINT LeftFoot
      {
        OFFSET -0.000194052 -41 -1.99979
        CHANNELS 6 Xposition Yposition Zposition Zrotation Xrotation Yrotation
        JOINT LeftToeBase
        {
          OFFSET 0.00103484 -7.50002 12.5
          CHANNELS 6 Xposition Yposition Zposition Zrotation Xrotation Yrotation
          JOINT LeftFootToe
          {
            OFFSET 0 0 4
            CHANNELS 6 Xposition Yposition Zposition Zrotation Xrotation Yrotation
            End Site
            {
              OFFSET 0 0 0
            }
          }
        }
      }
    }
  }
  JOINT RightUpLeg
  {
    OFFSET -8.00003 0 0
    CHANNELS 6 Xposition Yposition Zposition Zrotation Xrotation Yrotation
    JOINT RightLeg
    {
      OFFSET 0.000185683 -45 -1.00013
      CHANNELS 6 Xposition Yposition Zposition Zrotation Xrotation Yrotation
      JOINT RightFoot
      {
        OFFSET -0.000117803 -41 -1.99968
        CHANNELS 6 Xposition Yposition Zposition Zrotation Xrotation Yrotation
        JOINT RightToeBase
        {
          OFFSET -0.000424588 -7.50002 12.4996
          CHANNELS 6 Xposition Yposition Zposition Zrotation Xrotation Yrotation
          JOINT RightFootToe
          {
            OFFSET 0 0 4
            CHANNELS 6 Xposition Yposition Zposition Zrotation Xrotation Yrotation
            End Site
            {
              OFFSET 0 0 0
            }
          }
        }
      }
    }
  }
}
MOTION
Frames:	3
Frame Time:	0.0111111
-447.556 73.5363 1300.3 -27.5918 9.7161 170.173 -2.84217e-13 8 0 6.42003 18.2165 -11.0063 0 8 0 0.0805893 9.73976 -0.0608732 5.68434e-14 8 2.27374e-13 0.0388914 4.87882 -0.0286277 0 8 -2.27374e-13 0.0394632 4.86011 -0.0296883 -5.68434e-14 17 -2.27374e-13 -9.55546 0.909765 1.40925 5.68434e-14 10.8 2.27374e-13 -22.4628 1.72154 3.503 5 17 0 -3.41184 -4.1991 9.23254 6.45 -1.13687e-13 0 -1.88299 0.187355 1.61345 6.45 0 -2.27374e-13 83.5653 -15.5165 3.55496 0 -32.4 -2 -97.4614 -62.7702 -92.9091 2.27374e-13 -25.65 2 -37.7466 30.7233 -24.7609 -0.5 -1.5 2.65 22.4561 -3.42495 42.7311 -2.27374e-13 -3.8 3.7 0.0668727 1.12935 -0.106241 0 -3 2.7 0.033995 0.426413 -0.0910595 -2.27374e-13 -1.9 1.6 6.11949e-06 -4.53946e-06 -4.84228e-07 -4.54747e-13 -8.3 1.9 -71.785 -16.496 -9.14852 -1.7053e-13 -4.5 -1.13687e-13 -0.00666199 0.00570693 -0.00580391 -1.7053e-13 -3.4 1.13687e-13 -2.82988e-05 -0.0272971 -0.00643099 -0.25 -2.2 0.4 6.11949e-06 -4.53946e-06 -4.84228e-07 2.27374e-13 -8.3 1 -61.4458 -21.8016 -8.83179 1.13687e-13 -4.65 5.68434e-14 -36.9738 4.22823 -0.0234309 1.13687e-13 -3.3 -1.13687e-13 -90.0007 -0.0163592 0.100926 -0.5 -2.15 -0.8 6.11949e-06 -4.53946e-06 -4.84228e-07 0 -7.75 -0.2 -25.1243 -28.9246 -3.9883 0 -3.8 -1.13687e-13 -0.288249 0.0461653 -0.182392 0 -3.4 -1.13687e-13 0.000138333 0.0427322 -0.156307 -0.75 -1.75 -1.85 6.11949e-06 -4.53946e-06 -4.84228e-07 0 -7.15 -1 -7.52836 -20.672 -0.241666 0 -3 -5.68434e-14 -0.11097 0.0686602 -0.165435 0 -2.35 1.7053e-13 0.000186198 0.126375 -0.148044 -5 17 -2.27374e-13 -1.13293 0.145974 0.681686 -6.45 0 2.27374e-13 -1.78499 -1.56851 -3.30663 -6.45 -1.13687e-13 -2.27374e-13 -9.78509 -74.2702 59.0311 1.13687e-13 -32.4 -2 -22.9538 -85.0279 -21.0671 0 -25.65 2 -26.4109 -31.5085 16.3452 0.5 -1.5 2.65 -147.115 11.9193 124.73 -1.13687e-13 -3.8 3.7 0.230033 -1.63631 -0.401634 1.13687e-13 -3 2.7 -0.0342384 59.3037 0.0235506 0 -1.9 1.6 2.73802e-06 7.75882e-06 -1.24794e-06 -5.68434e-14 -8.3 1.9 33.724 8.88099 -3.08467 -1.13687e-13 -4.5 -2.27374e-13 64.4133 -0.108498 -0.0598121 -1.13687e-13 -3.4 0 46.0376 -0.0759893 0.047704 0.25 -2.2 0.4 2.73802e-06 7.75882e-06 -1.24794e-06 -2.55795e-13 -8.3 1 44.2497 12.9232 -6.93368 -1.13687e-13 -4.65 0 87.686 0.160716 0.140927 -2.27374e-13 -3.3 0 82.3996 0.0206281 -0.0858791 0.5 -2.15 -0.8 2.73802e-06 7.75882e-06 -1.24794e-06 1.13687e-13 -7.75 -0.2 59.9274 6.44598 -7.61402 1.13687e-13 -3.8 -2.27374e-13 78.7643 -0.00308717 0.135848 1.7053e-13 -3.4 -2.27374e-13 63.8394 -0.0355593 0.0625567 0.75 -1.75 -1.85 2.73802e-06 7.75882e-06 -1.24794e-06 0 -7.15 -1 70.3478 9.55651 -13.327 0 -3 2.27374e-13 54.0344 3.96721 -0.126632 1.13687e-13 -2.35 2.27374e-13 37.5031 -0.0600306 -0.066424 8 2.84217e-14 -2.27374e-13 7.93243 -37.6731 2.90981 0 -45 -1 -37.6537 40.3307 11.6283 -1.13687e-13 -41 -2 -6.1473 -4.11118 19.1284 2.27374e-13 -7.5 12.5 1.00421e-06 -0.000278862 0.000796248 0 -4.44089e-16 4 9.0488 7.11966 30.6223 -8 2.84217e-14 0 19.3127 -41.5949 16.8701 1.13687e-13 -45 -1 -79.8675 27.2421 57.9955 1.13687e-13 -41 -2 29.2818 19.189 -4.26936 -1.7053e-13 -7.5 12.5 -1.49623e-07 -26.353 -1.7328e-06 -5.68434e-14 2.22045e-16 4 -0.933711 25.2643 26.8415 
-447.543 73.5364 1300.39 -27.5636 9.66422 170.173 -3.12639e-13 8 0 6.43409 18.2598 -11.0071 0 8 0 0.0543415 9.75244 -0.0403031 -1.13687e-13 8 0 0.0262336 4.88513 -0.0189182 0 8 2.27374e-13 0.0263582 4.86701 -0.01921 5.68434e-14 17 -2.27374e-13 -9.54369 0.867128 1.39695 -5.68434e-14 10.8 0 -22.4332 1.62707 3.46362 5 17 0 -3.40666 -4.221 9.23876 6.45 0 0 -1.89928 0.196615 1.61718 6.45 0 0 83.6274 -15.7645 3.63061 0 -32.4 -2 -97.9909 -62.9355 -93.5489 2.27374e-13 -25.65 2 -37.6662 30.7381 -24.7269 -0.5 -1.5 2.65 22.3153 -3.47636 42.5677 -2.27374e-13 -3.8 3.7 0.0670862 1.12935 -0.10524 0 -3 2.7 0.0336864 0.426404 -0.089787 -4.54747e-13 -1.9 1.6 6.11949e-06 -4.53946e-06 -4.84228e-07 -2.27374e-13 -8.3 1.9 -71.8459 -16.4467 -9.12119 -2.27374e-13 -4.5 5.68434e-14 -0.00665723 0.00579152 -0.00588395 -1.13687e-13 -3.4 5.68434e-14 -2.78168e-05 -0.0276738 -0.00651767 -0.25 -2.2 0.4 6.11949e-06 -4.53946e-06 -4.84228e-07 0 -8.3 1 -61.1744 -21.943 -8.88011 0 -4.65 -5.68434e-14 -36.9737 4.22841 -0.0239625 1.13687e-13 -3.3 -1.13687e-13 -90.0007 -0.016524 0.100398 -0.5 -2.15 -0.8 6.11949e-06 -4.53946e-06 -4.84228e-07 0 -7.75 -0.2 -24.8086 -28.8515 -3.92144 0 -3.8 -5.68434e-14 -0.288251 0.0457064 -0.182384 0 -3.4 0 0.000137305 0.0423633 -0.156278 -0.75 -1.75 -1.85 6.11949e-06 -4.53946e-06 -4.84228e-07 0 -7.15 -1 -7.33329 -20.4603 -0.220907 0 -3 0 -0.110691 0.0687087 -0.165784 0 -2.35 5.68434e-14 0.00018553 0.125152 -0.148403 -5 17 0 -1.13222 0.114046 0.650558 -6.45 1.13687e-13 2.27374e-13 -1.77745 -1.57558 -3.31508 -6.45 0 -2.27374e-13 -9.15365 -74.2179 59.6573 -1.13687e-13 -32.4 -2 -24.7571 -84.8928 -22.7638 -1.13687e-13 -25.65 2 -26.4216 -31.5538 16.329 0.5 -1.5 2.65 -147.041 11.9229 124.716 -1.13687e-13 -3.8 3.7 0.230289 -1.63599 -0.401917 0 -3 2.7 -0.0349974 59.3754 0.0241511 2.84217e-14 -1.9 1.6 2.73802e-06 7.75882e-06 -1.24794e-06 -5.68434e-14 -8.3 1.9 33.7258 8.88279 -3.08485 -1.13687e-13 -4.5 0 64.3877 -0.108557 -0.0597865 -1.7053e-13 -3.4 2.27374e-13 46.0132 -0.0761037 0.0478279 0.25 -2.2 0.4 2.73802e-06 7.75882e-06 -1.24794e-06 -2.27374e-13 -8.3 1 44.2449 12.9155 -6.92999 -5.68434e-14 -4.65 -2.27374e-13 87.6893 0.1599 0.141591 -1.7053e-13 -3.3 0 82.4086 0.0216467 -0.0861684 0.5 -2.15 -0.8 2.73802e-06 7.75882e-06 -1.24794e-06 1.42109e-13 -7.75 -0.2 59.9281 6.44788 -7.61403 1.13687e-13 -3.8 -2.27374e-13 78.7624 -0.00336041 0.135674 1.13687e-13 -3.4 2.27374e-13 63.8363 -0.0358707 0.0624432 0.75 -1.75 -1.85 2.73802e-06 7.75882e-06 -1.24794e-06 -2.84217e-14 -7.15 -1 70.3499 9.55612 -13.3257 0 -3 0 53.9857 3.96102 -0.126601 1.13687e-13 -2.35 2.27374e-13 37.4669 -0.0600442 -0.0665689 8 0 0 7.98681 -37.7335 2.9678 -5.68434e-14 -45 -1 -37.5717 40.2779 11.5595 0 -41 -2 -6.18253 -4.00915 19.1807 2.27374e-13 -7.5 12.5 1.00421e-06 -0.000279006 0.000796248 -5.68434e-14 -4.44089e-16 4 9.01814 7.10575 30.6181 -8 0 0 19.3705 -41.6616 16.9297 1.13687e-13 -45 -1 -79.7742 27.2387 57.9412 0 -41 -2 29.2523 19.2911 -4.23183 -1.13687e-13 -7.5 12.5 -1.4966e-07 -26.3541 -1.73281e-06 -1.13687e-13 0 4 -0.957136 25.2667 26.8786 
-447.532 73.5371 1300.47 -27.5478 9.61318 170.168 -1.98952e-13 8 2.27374e-13 6.4328 18.3031 -11.008 5.68434e-14 8 2.27374e-13 0.0274162 9.76294 -0.0196152 0 8 0 0.0132477 4.88998 -0.00916901 -5.68434e-14 8 0 0.0128904 4.87381 -0.00872727 0 17 0 -9.52853 0.824707 1.38315 0 10.8 -2.27374e-13 -22.3941 1.5332 3.42041 5 17 2.27374e-13 -3.40398 -4.23615 9.24283 6.45 -1.13687e-13 0 -1.91215 0.201842 1.62291 6.45 0 0 83.6808 -15.9939 3.69452 1.13687e-13 -32.4 -2 -98.6063 -63.1013 -94.2846 2.27374e-13 -25.65 2 -37.5498 30.7434 -24.7031 -0.5 -1.5 2.65 22.1856 -3.50055 42.3845 -2.27374e-13 -3.8 3.7 0.0673197 1.12935 -0.104228 2.27374e-13 -3 2.7 0.0334123 0.426393 -0.0885762 -2.27374e-13 -1.9 1.6 6.11949e-06 -4.53946e-06 -4.84228e-07 -4.54747e-13 -8.3 1.9 -71.876 -16.4232 -9.10938 -1.7053e-13 -4.5 0 -0.00665247 0.00587576 -0.00596338 -5.68434e-14 -3.4 -5.68434e-14 -2.73394e-05 -0.0280476 -0.00660364 -0.25 -2.2 0.4 6.11949e-06 -4.53946e-06 -4.84228e-07 0 -8.3 1 -60.7794 -22.1557 -8.95502 0 -4.65 -5.68434e-14 -36.9736 4.22859 -0.0244943 1.13687e-13 -3.3 -5.68434e-14 -90.0007 -0.0166874 0.099844 -0.5 -2.15 -0.8 6.11949e-06 -4.53946e-06 -4.84228e-07 0 -7.75 -0.2 -24.4854 -28.7774 -3.85371 0 -3.8 0 -0.288252 0.0452455 -0.182364 0 -3.4 0 0.000136261 0.04199 -0.156241 -0.75 -1.75 -1.85 6.11949e-06 -4.53946e-06 -4.84228e-07 0 -7.15 -1 -7.15143 -20.2578 -0.201174 0 -3 0 -0.110395 0.0687494 -0.166118 2.27374e-13 -2.35 1.7053e-13 0.00018479 0.123914 -0.148748 -5 17 2.27374e-13 -1.1378 0.0879379 0.614046 -6.45 0 -2.27374e-13 -1.76773 -1.58362 -3.31925 -6.45 -2.27374e-13 -2.27374e-13 -8.54082 -74.1656 60.2635 0 -32.4 -2 -26.4097 -84.7585 -24.3231 -2.27374e-13 -25.65 2 -26.4404 -31.5968 16.3103 0.5 -1.5 2.65 -146.965 11.9417 124.679 -1.13687e-13 -3.8 3.7 0.230541 -1.63567 -0.402211 0 -3 2.7 -0.0357368 59.4425 0.0247367 2.84217e-14 -1.9 1.6 2.73802e-06 7.75882e-06 -1.24794e-06 0 -8.3 1.9 33.7195 8.88503 -3.08531 -1.7053e-13 -4.5 -4.54747e-13 64.3639 -0.108606 -0.0597559 -1.13687e-13 -3.4 -2.27374e-13 45.9904 -0.0762096 0.0479466 0.25 -2.2 0.4 2.73802e-06 7.75882e-06 -1.24794e-06 -1.98952e-13 -8.3 1 44.2316 12.9088 -6.92469 -1.13687e-13 -4.65 -2.27374e-13 87.6923 0.159058 0.142262 -1.7053e-13 -3.3 0 82.4184 0.0226755 -0.0864623 0.5 -2.15 -0.8 2.73802e-06 7.75882e-06 -1.24794e-06 1.13687e-13 -7.75 -0.2 59.9268 6.45353 -7.61407 1.13687e-13 -3.8 -2.27374e-13 78.7505 -0.00364181 0.135489 1.7053e-13 -3.4 0 63.8168 -0.0361775 0.062325 0.75 -1.75 -1.85 2.73802e-06 7.75882e-06 -1.24794e-06 0 -7.15 -1 70.3383 9.558 -13.324 0 -3 0 53.9397 3.95386 -0.126542 1.13687e-13 -2.35 2.27374e-13 37.4327 -0.060056 -0.0667078 8 0 0 8.03101 -37.7879 3.03358 5.68434e-14 -45 -1 -37.4822 40.2198 11.4817 0 -41 -2 -6.2204 -3.90638 19.2301 2.27374e-13 -7.5 12.5 1.00421e-06 -0.00027902 0.000796248 0 -4.44089e-16 4 8.98884 7.09262 30.6153 -8 0 2.27374e-13 19.4197 -41.7282 16.9955 1.13687e-13 -45 -1 -79.678 27.2349 57.8813 1.13687e-13 -41 -2 29.2154 19.3936 -4.17688 -1.13687e-13 -7.5 12.5 -1.49724e-07 -26.356 -1.73284e-06 5.68434e-14 0 4 -0.961998 25.2686 26.874 
